<svg width="761" height="62" viewBox="0 0 761 62" fill="none" xmlns="http://www.w3.org/2000/svg">
<g filter="url(#filter0_d_934_70)">
<path d="M31.34 43.9203C29.3133 43.9203 27.4867 43.567 25.86 42.8603C24.2333 42.1536 22.8467 41.147 21.7 39.8403C20.5667 38.5336 19.7 36.9603 19.1 35.1203C18.5 33.267 18.2 31.2003 18.2 28.9203C18.2 25.907 18.72 23.2803 19.76 21.0403C20.8133 18.787 22.32 17.0403 24.28 15.8003C26.24 14.5603 28.5933 13.9403 31.34 13.9403C34.4067 13.9403 36.9 14.6603 38.82 16.1003C40.7533 17.527 42.1 19.447 42.86 21.8603L39.9 22.5803C39.2733 20.8203 38.24 19.4136 36.8 18.3603C35.3733 17.307 33.5933 16.7803 31.46 16.7803C29.2067 16.767 27.3333 17.2736 25.84 18.3003C24.3467 19.3136 23.22 20.7403 22.46 22.5803C21.7133 24.407 21.3333 26.5203 21.32 28.9203C21.3067 31.3203 21.6733 33.4336 22.42 35.2603C23.18 37.0736 24.3133 38.5003 25.82 39.5403C27.3267 40.567 29.2067 41.087 31.46 41.1003C33.5267 41.1003 35.2333 40.7003 36.58 39.9003C37.9267 39.1003 38.9467 37.9536 39.64 36.4603C40.3467 34.967 40.7467 33.2003 40.84 31.1603H34.2V28.6403H43.92C43.96 28.947 43.98 29.2736 43.98 29.6203C43.9933 29.9536 44 30.1936 44 30.3403C44 32.9403 43.5333 35.267 42.6 37.3203C41.6667 39.3603 40.26 40.9736 38.38 42.1603C36.5133 43.3336 34.1667 43.9203 31.34 43.9203ZM57.0231 43.9203C54.8765 43.9203 53.0431 43.4336 51.5231 42.4603C50.0031 41.487 48.8365 40.1403 48.0231 38.4203C47.2098 36.7003 46.8031 34.727 46.8031 32.5003C46.8031 30.2336 47.2165 28.247 48.0431 26.5403C48.8698 24.8336 50.0431 23.507 51.5631 22.5603C53.0965 21.6003 54.9165 21.1203 57.0231 21.1203C59.1831 21.1203 61.0231 21.607 62.5431 22.5803C64.0765 23.5403 65.2431 24.8803 66.0431 26.6003C66.8565 28.307 67.2631 30.2736 67.2631 32.5003C67.2631 34.767 66.8565 36.7603 66.0431 38.4803C65.2298 40.187 64.0565 41.5203 62.5231 42.4803C60.9898 43.4403 59.1565 43.9203 57.0231 43.9203ZM57.0231 41.1003C59.4231 41.1003 61.2098 40.307 62.3831 38.7203C63.5565 37.1203 64.1431 35.047 64.1431 32.5003C64.1431 29.887 63.5498 27.807 62.3631 26.2603C61.1898 24.7136 59.4098 23.9403 57.0231 23.9403C55.4098 23.9403 54.0765 24.307 53.0231 25.0403C51.9831 25.7603 51.2031 26.767 50.6831 28.0603C50.1765 29.3403 49.9231 30.8203 49.9231 32.5003C49.9231 35.1003 50.5231 37.187 51.7231 38.7603C52.9231 40.3203 54.6898 41.1003 57.0231 41.1003ZM80.695 43.9203C78.5483 43.9203 76.715 43.4336 75.195 42.4603C73.675 41.487 72.5083 40.1403 71.695 38.4203C70.8817 36.7003 70.475 34.727 70.475 32.5003C70.475 30.2336 70.8883 28.247 71.715 26.5403C72.5417 24.8336 73.715 23.507 75.235 22.5603C76.7683 21.6003 78.5883 21.1203 80.695 21.1203C82.855 21.1203 84.695 21.607 86.215 22.5803C87.7483 23.5403 88.915 24.8803 89.715 26.6003C90.5283 28.307 90.935 30.2736 90.935 32.5003C90.935 34.767 90.5283 36.7603 89.715 38.4803C88.9017 40.187 87.7283 41.5203 86.195 42.4803C84.6617 43.4403 82.8283 43.9203 80.695 43.9203ZM80.695 41.1003C83.095 41.1003 84.8817 40.307 86.055 38.7203C87.2283 37.1203 87.815 35.047 87.815 32.5003C87.815 29.887 87.2217 27.807 86.035 26.2603C84.8617 24.7136 83.0817 23.9403 80.695 23.9403C79.0817 23.9403 77.7483 24.307 76.695 25.0403C75.655 25.7603 74.875 26.767 74.355 28.0603C73.8483 29.3403 73.595 30.8203 73.595 32.5003C73.595 35.1003 74.195 37.187 75.395 38.7603C76.595 40.3203 78.3617 41.1003 80.695 41.1003ZM103.727 43.9203C101.714 43.9203 99.9935 43.4203 98.5669 42.4203C97.1402 41.407 96.0469 40.0403 95.2869 38.3203C94.5269 36.6003 94.1469 34.6603 94.1469 32.5003C94.1469 30.3536 94.5202 28.4203 95.2669 26.7003C96.0269 24.9803 97.1135 23.6203 98.5269 22.6203C99.9402 21.6203 101.634 21.1203 103.607 21.1203C105.634 21.1203 107.34 21.6136 108.727 22.6003C110.114 23.587 111.16 24.9403 111.867 26.6603C112.587 28.367 112.947 30.3136 112.947 32.5003C112.947 34.647 112.594 36.587 111.887 38.3203C111.18 40.0403 110.14 41.407 108.767 42.4203C107.394 43.4203 105.714 43.9203 103.727 43.9203ZM104.027 41.1803C105.56 41.1803 106.827 40.807 107.827 40.0603C108.827 39.3136 109.574 38.287 110.067 36.9803C110.56 35.6603 110.807 34.167 110.807 32.5003C110.807 30.807 110.56 29.3136 110.067 28.0203C109.574 26.7136 108.827 25.6936 107.827 24.9603C106.84 24.227 105.594 23.8603 104.087 23.8603C102.54 23.8603 101.26 24.2403 100.247 25.0003C99.2335 25.7603 98.4802 26.7936 97.9869 28.1003C97.5069 29.407 97.2669 30.8736 97.2669 32.5003C97.2669 34.1403 97.5135 35.6203 98.0069 36.9403C98.5135 38.247 99.2669 39.2803 100.267 40.0403C101.267 40.8003 102.52 41.1803 104.027 41.1803ZM110.807 43.3203V27.0603H110.487V14.5203H113.447V43.3203H110.807ZM152.826 43.3203L152.846 29.1403C152.846 27.4736 152.379 26.167 151.446 25.2203C150.526 24.2603 149.352 23.7803 147.926 23.7803C147.112 23.7803 146.319 23.967 145.546 24.3403C144.772 24.7136 144.132 25.3136 143.626 26.1403C143.132 26.967 142.886 28.047 142.886 29.3803L141.146 28.8803C141.106 27.3336 141.406 25.9803 142.046 24.8203C142.699 23.6603 143.592 22.7603 144.726 22.1203C145.872 21.467 147.166 21.1403 148.606 21.1403C150.779 21.1403 152.519 21.8136 153.826 23.1603C155.132 24.4936 155.786 26.3003 155.786 28.5803L155.766 43.3203H152.826ZM127.046 43.3203V21.7203H129.686V27.0403H130.006V43.3203H127.046ZM139.966 43.3203L139.986 29.3403C139.986 27.6203 139.526 26.267 138.606 25.2803C137.699 24.2803 136.499 23.7803 135.006 23.7803C133.512 23.7803 132.306 24.2936 131.386 25.3203C130.466 26.3336 130.006 27.687 130.006 29.3803L128.246 28.4203C128.246 27.0336 128.572 25.7936 129.226 24.7003C129.879 23.5936 130.772 22.727 131.906 22.1003C133.039 21.4603 134.326 21.1403 135.766 21.1403C137.139 21.1403 138.359 21.4336 139.426 22.0203C140.506 22.607 141.352 23.4603 141.966 24.5803C142.579 25.7003 142.886 27.0603 142.886 28.6603L142.866 43.3203H139.966ZM167.152 43.9203C165.525 43.9203 164.159 43.627 163.052 43.0403C161.959 42.4536 161.139 41.6736 160.592 40.7003C160.045 39.727 159.772 38.667 159.772 37.5203C159.772 36.347 160.005 35.347 160.472 34.5203C160.952 33.6803 161.599 32.9936 162.412 32.4603C163.239 31.927 164.192 31.5203 165.272 31.2403C166.365 30.9736 167.572 30.7403 168.892 30.5403C170.225 30.327 171.525 30.147 172.792 30.0003C174.072 29.8403 175.192 29.687 176.152 29.5403L175.112 30.1803C175.152 28.047 174.739 26.467 173.872 25.4403C173.005 24.4136 171.499 23.9003 169.352 23.9003C167.872 23.9003 166.619 24.2336 165.592 24.9003C164.579 25.567 163.865 26.6203 163.452 28.0603L160.592 27.2203C161.085 25.287 162.079 23.787 163.572 22.7203C165.065 21.6536 167.005 21.1203 169.392 21.1203C171.365 21.1203 173.039 21.4936 174.412 22.2403C175.799 22.9736 176.779 24.0403 177.352 25.4403C177.619 26.067 177.792 26.767 177.872 27.5403C177.952 28.3136 177.992 29.1003 177.992 29.9003V43.3203H175.372V37.9003L176.132 38.2203C175.399 40.0736 174.259 41.487 172.712 42.4603C171.165 43.4336 169.312 43.9203 167.152 43.9203ZM167.492 41.3803C168.865 41.3803 170.065 41.1336 171.092 40.6403C172.119 40.147 172.945 39.4736 173.572 38.6203C174.199 37.7536 174.605 36.7803 174.792 35.7003C174.952 35.007 175.039 34.247 175.052 33.4203C175.065 32.5803 175.072 31.9536 175.072 31.5403L176.192 32.1203C175.192 32.2536 174.105 32.387 172.932 32.5203C171.772 32.6536 170.625 32.807 169.492 32.9803C168.372 33.1536 167.359 33.3603 166.452 33.6003C165.839 33.7736 165.245 34.0203 164.672 34.3403C164.099 34.647 163.625 35.0603 163.252 35.5803C162.892 36.1003 162.712 36.747 162.712 37.5203C162.712 38.147 162.865 38.7536 163.172 39.3403C163.492 39.927 163.999 40.4136 164.692 40.8003C165.399 41.187 166.332 41.3803 167.492 41.3803ZM183.198 43.3203V21.7203H185.838V26.9203L185.318 26.2403C185.558 25.6003 185.872 25.0136 186.258 24.4803C186.645 23.9336 187.065 23.487 187.518 23.1403C188.078 22.647 188.732 22.2736 189.478 22.0203C190.225 21.7536 190.978 21.6003 191.738 21.5603C192.498 21.507 193.192 21.5603 193.818 21.7203V24.4803C193.032 24.2803 192.172 24.2336 191.238 24.3403C190.305 24.447 189.445 24.8203 188.658 25.4603C187.938 26.0203 187.398 26.6936 187.038 27.4803C186.678 28.2536 186.438 29.0803 186.318 29.9603C186.198 30.827 186.138 31.687 186.138 32.5403V43.3203H183.198ZM197.593 43.3203L197.613 14.5203H200.573V32.1203L210.213 21.7203H214.133L204.013 32.5203L215.453 43.3203H211.173L200.573 32.9203V43.3203H197.593ZM225.716 43.8603C224.423 43.8603 223.29 43.6603 222.316 43.2603C221.356 42.8603 220.536 42.3203 219.856 41.6403C219.19 40.9603 218.65 40.187 218.236 39.3203C217.823 38.4403 217.523 37.5136 217.336 36.5403C217.15 35.5536 217.056 34.5736 217.056 33.6003V21.7203H220.016V32.7403C220.016 33.927 220.13 35.027 220.356 36.0403C220.583 37.0536 220.943 37.9403 221.436 38.7003C221.943 39.447 222.59 40.027 223.376 40.4403C224.176 40.8536 225.143 41.0603 226.276 41.0603C227.316 41.0603 228.23 40.8803 229.016 40.5203C229.816 40.1603 230.483 39.647 231.016 38.9803C231.563 38.3003 231.976 37.4803 232.256 36.5203C232.536 35.547 232.676 34.4536 232.676 33.2403L234.756 33.7003C234.756 35.9136 234.37 37.7736 233.596 39.2803C232.823 40.787 231.756 41.927 230.396 42.7003C229.036 43.4736 227.476 43.8603 225.716 43.8603ZM232.976 43.3203V38.0003H232.676V21.7203H235.616V43.3203H232.976ZM250.906 43.9203C248.92 43.9203 247.24 43.4203 245.866 42.4203C244.493 41.407 243.453 40.0403 242.746 38.3203C242.04 36.587 241.686 34.647 241.686 32.5003C241.686 30.3136 242.04 28.367 242.746 26.6603C243.466 24.9403 244.52 23.587 245.906 22.6003C247.293 21.6136 249 21.1203 251.026 21.1203C253 21.1203 254.693 21.6203 256.106 22.6203C257.52 23.6203 258.6 24.9803 259.346 26.7003C260.106 28.4203 260.486 30.3536 260.486 32.5003C260.486 34.6603 260.106 36.6003 259.346 38.3203C258.586 40.0403 257.493 41.407 256.066 42.4203C254.64 43.4203 252.92 43.9203 250.906 43.9203ZM241.186 52.9203V21.7203H243.826V37.9803H244.146V52.9203H241.186ZM250.606 41.1803C252.113 41.1803 253.366 40.8003 254.366 40.0403C255.366 39.2803 256.113 38.247 256.606 36.9403C257.113 35.6203 257.366 34.1403 257.366 32.5003C257.366 30.8736 257.12 29.407 256.626 28.1003C256.133 26.7936 255.38 25.7603 254.366 25.0003C253.366 24.2403 252.093 23.8603 250.546 23.8603C249.04 23.8603 247.786 24.227 246.786 24.9603C245.8 25.6936 245.06 26.7136 244.566 28.0203C244.073 29.3136 243.826 30.807 243.826 32.5003C243.826 34.167 244.073 35.6603 244.566 36.9803C245.06 38.287 245.806 39.3136 246.806 40.0603C247.806 40.807 249.073 41.1803 250.606 41.1803ZM298.646 43.3203L298.666 29.1403C298.666 27.4736 298.199 26.167 297.266 25.2203C296.346 24.2603 295.173 23.7803 293.746 23.7803C292.933 23.7803 292.139 23.967 291.366 24.3403C290.593 24.7136 289.953 25.3136 289.446 26.1403C288.953 26.967 288.706 28.047 288.706 29.3803L286.966 28.8803C286.926 27.3336 287.226 25.9803 287.866 24.8203C288.519 23.6603 289.413 22.7603 290.546 22.1203C291.693 21.467 292.986 21.1403 294.426 21.1403C296.599 21.1403 298.339 21.8136 299.646 23.1603C300.953 24.4936 301.606 26.3003 301.606 28.5803L301.586 43.3203H298.646ZM272.866 43.3203V21.7203H275.506V27.0403H275.826V43.3203H272.866ZM285.786 43.3203L285.806 29.3403C285.806 27.6203 285.346 26.267 284.426 25.2803C283.519 24.2803 282.319 23.7803 280.826 23.7803C279.333 23.7803 278.126 24.2936 277.206 25.3203C276.286 26.3336 275.826 27.687 275.826 29.3803L274.066 28.4203C274.066 27.0336 274.393 25.7936 275.046 24.7003C275.699 23.5936 276.593 22.727 277.726 22.1003C278.859 21.4603 280.146 21.1403 281.586 21.1403C282.959 21.1403 284.179 21.4336 285.246 22.0203C286.326 22.607 287.173 23.4603 287.786 24.5803C288.399 25.7003 288.706 27.0603 288.706 28.6603L288.686 43.3203H285.786ZM312.972 43.9203C311.346 43.9203 309.979 43.627 308.872 43.0403C307.779 42.4536 306.959 41.6736 306.412 40.7003C305.866 39.727 305.592 38.667 305.592 37.5203C305.592 36.347 305.826 35.347 306.292 34.5203C306.772 33.6803 307.419 32.9936 308.232 32.4603C309.059 31.927 310.012 31.5203 311.092 31.2403C312.186 30.9736 313.392 30.7403 314.712 30.5403C316.046 30.327 317.346 30.147 318.612 30.0003C319.892 29.8403 321.012 29.687 321.972 29.5403L320.932 30.1803C320.972 28.047 320.559 26.467 319.692 25.4403C318.826 24.4136 317.319 23.9003 315.172 23.9003C313.692 23.9003 312.439 24.2336 311.412 24.9003C310.399 25.567 309.686 26.6203 309.272 28.0603L306.412 27.2203C306.906 25.287 307.899 23.787 309.392 22.7203C310.886 21.6536 312.826 21.1203 315.212 21.1203C317.186 21.1203 318.859 21.4936 320.232 22.2403C321.619 22.9736 322.599 24.0403 323.172 25.4403C323.439 26.067 323.612 26.767 323.692 27.5403C323.772 28.3136 323.812 29.1003 323.812 29.9003V43.3203H321.192V37.9003L321.952 38.2203C321.219 40.0736 320.079 41.487 318.532 42.4603C316.986 43.4336 315.132 43.9203 312.972 43.9203ZM313.312 41.3803C314.686 41.3803 315.886 41.1336 316.912 40.6403C317.939 40.147 318.766 39.4736 319.392 38.6203C320.019 37.7536 320.426 36.7803 320.612 35.7003C320.772 35.007 320.859 34.247 320.872 33.4203C320.886 32.5803 320.892 31.9536 320.892 31.5403L322.012 32.1203C321.012 32.2536 319.926 32.387 318.752 32.5203C317.592 32.6536 316.446 32.807 315.312 32.9803C314.192 33.1536 313.179 33.3603 312.272 33.6003C311.659 33.7736 311.066 34.0203 310.492 34.3403C309.919 34.647 309.446 35.0603 309.072 35.5803C308.712 36.1003 308.532 36.747 308.532 37.5203C308.532 38.147 308.686 38.7536 308.992 39.3403C309.312 39.927 309.819 40.4136 310.512 40.8003C311.219 41.187 312.152 41.3803 313.312 41.3803ZM328.999 43.3203L329.019 14.5203H331.979V32.1203L341.619 21.7203H345.539L335.419 32.5203L346.859 43.3203H342.579L331.979 32.9203V43.3203H328.999ZM357.612 43.9203C355.505 43.9203 353.679 43.4536 352.132 42.5203C350.599 41.587 349.405 40.2736 348.552 38.5803C347.699 36.887 347.272 34.9003 347.272 32.6203C347.272 30.2603 347.692 28.2203 348.532 26.5003C349.372 24.7803 350.552 23.4536 352.072 22.5203C353.605 21.587 355.412 21.1203 357.492 21.1203C359.625 21.1203 361.445 21.6136 362.952 22.6003C364.459 23.5736 365.599 24.9736 366.372 26.8003C367.145 28.627 367.499 30.807 367.432 33.3403H364.432V32.3003C364.379 29.5003 363.772 27.387 362.612 25.9603C361.465 24.5336 359.785 23.8203 357.572 23.8203C355.252 23.8203 353.472 24.5736 352.232 26.0803C351.005 27.587 350.392 29.7336 350.392 32.5203C350.392 35.2403 351.005 37.3536 352.232 38.8603C353.472 40.3536 355.225 41.1003 357.492 41.1003C359.039 41.1003 360.385 40.747 361.532 40.0403C362.692 39.3203 363.605 38.287 364.272 36.9403L367.012 38.0003C366.159 39.8803 364.899 41.3403 363.232 42.3803C361.579 43.407 359.705 43.9203 357.612 43.9203ZM349.352 33.3403V30.8803H365.852V33.3403H349.352ZM379.93 43.9003C377.397 43.9003 375.31 43.3536 373.67 42.2603C372.044 41.167 371.044 39.647 370.67 37.7003L373.67 37.2003C373.99 38.427 374.717 39.407 375.85 40.1403C376.997 40.8603 378.41 41.2203 380.09 41.2203C381.73 41.2203 383.024 40.8803 383.97 40.2003C384.917 39.507 385.39 38.567 385.39 37.3803C385.39 36.7136 385.237 36.1736 384.93 35.7603C384.637 35.3336 384.03 34.9403 383.11 34.5803C382.19 34.2203 380.817 33.7936 378.99 33.3003C377.03 32.767 375.497 32.2336 374.39 31.7003C373.284 31.167 372.497 30.5536 372.03 29.8603C371.564 29.1536 371.33 28.2936 371.33 27.2803C371.33 26.0536 371.677 24.9803 372.37 24.0603C373.064 23.127 374.024 22.407 375.25 21.9003C376.477 21.3803 377.904 21.1203 379.53 21.1203C381.157 21.1203 382.61 21.387 383.89 21.9203C385.184 22.4403 386.224 23.1736 387.01 24.1203C387.797 25.067 388.264 26.167 388.41 27.4203L385.41 27.9603C385.21 26.6936 384.577 25.6936 383.51 24.9603C382.457 24.2136 381.117 23.827 379.49 23.8003C377.957 23.7603 376.71 24.0536 375.75 24.6803C374.79 25.2936 374.31 26.1136 374.31 27.1403C374.31 27.7136 374.484 28.207 374.83 28.6203C375.177 29.0203 375.804 29.4003 376.71 29.7603C377.63 30.1203 378.937 30.5136 380.63 30.9403C382.617 31.447 384.177 31.9803 385.31 32.5403C386.444 33.1003 387.25 33.7603 387.73 34.5203C388.21 35.2803 388.45 36.2203 388.45 37.3403C388.45 39.3803 387.69 40.987 386.17 42.1603C384.664 43.3203 382.584 43.9003 379.93 43.9003ZM409.474 53.5203C408.367 53.5203 407.274 53.3536 406.194 53.0203C405.127 52.7003 404.14 52.187 403.234 51.4803C402.327 50.787 401.567 49.8803 400.954 48.7603L403.614 47.2803C404.214 48.4803 405.054 49.3403 406.134 49.8603C407.227 50.3936 408.34 50.6603 409.474 50.6603C411.034 50.6603 412.294 50.367 413.254 49.7803C414.227 49.207 414.934 48.3536 415.374 47.2203C415.814 46.087 416.027 44.6736 416.014 42.9803V37.2203H416.354V21.7203H418.974V43.0203C418.974 43.6336 418.954 44.2203 418.914 44.7803C418.887 45.3536 418.827 45.9136 418.734 46.4603C418.48 48.0736 417.954 49.4003 417.154 50.4403C416.367 51.4803 415.327 52.2536 414.034 52.7603C412.754 53.267 411.234 53.5203 409.474 53.5203ZM409.274 43.9203C407.26 43.9203 405.54 43.4203 404.114 42.4203C402.687 41.407 401.594 40.0403 400.834 38.3203C400.074 36.6003 399.694 34.6603 399.694 32.5003C399.694 30.3536 400.067 28.4203 400.814 26.7003C401.574 24.9803 402.66 23.6203 404.074 22.6203C405.487 21.6203 407.18 21.1203 409.154 21.1203C411.18 21.1203 412.887 21.6136 414.274 22.6003C415.66 23.587 416.707 24.9403 417.414 26.6603C418.134 28.367 418.494 30.3136 418.494 32.5003C418.494 34.647 418.14 36.587 417.434 38.3203C416.727 40.0403 415.687 41.407 414.314 42.4203C412.94 43.4203 411.26 43.9203 409.274 43.9203ZM409.574 41.1803C411.107 41.1803 412.374 40.807 413.374 40.0603C414.374 39.3136 415.12 38.287 415.614 36.9803C416.107 35.6603 416.354 34.167 416.354 32.5003C416.354 30.807 416.107 29.3136 415.614 28.0203C415.12 26.7136 414.374 25.6936 413.374 24.9603C412.387 24.227 411.14 23.8603 409.634 23.8603C408.087 23.8603 406.807 24.2403 405.794 25.0003C404.78 25.7603 404.027 26.7936 403.534 28.1003C403.054 29.407 402.814 30.8736 402.814 32.5003C402.814 34.1403 403.06 35.6203 403.554 36.9403C404.06 38.247 404.814 39.2803 405.814 40.0403C406.814 40.8003 408.067 41.1803 409.574 41.1803ZM424.566 43.3203V21.7203H427.206V26.9203L426.686 26.2403C426.926 25.6003 427.239 25.0136 427.626 24.4803C428.012 23.9336 428.432 23.487 428.886 23.1403C429.446 22.647 430.099 22.2736 430.846 22.0203C431.592 21.7536 432.346 21.6003 433.106 21.5603C433.866 21.507 434.559 21.5603 435.186 21.7203V24.4803C434.399 24.2803 433.539 24.2336 432.606 24.3403C431.672 24.447 430.812 24.8203 430.026 25.4603C429.306 26.0203 428.766 26.6936 428.406 27.4803C428.046 28.2536 427.806 29.0803 427.686 29.9603C427.566 30.827 427.506 31.687 427.506 32.5403V43.3203H424.566ZM447.729 43.9203C445.622 43.9203 443.796 43.4536 442.249 42.5203C440.716 41.587 439.522 40.2736 438.669 38.5803C437.816 36.887 437.389 34.9003 437.389 32.6203C437.389 30.2603 437.809 28.2203 438.649 26.5003C439.489 24.7803 440.669 23.4536 442.189 22.5203C443.722 21.587 445.529 21.1203 447.609 21.1203C449.742 21.1203 451.562 21.6136 453.069 22.6003C454.576 23.5736 455.716 24.9736 456.489 26.8003C457.262 28.627 457.616 30.807 457.549 33.3403H454.549V32.3003C454.496 29.5003 453.889 27.387 452.729 25.9603C451.582 24.5336 449.902 23.8203 447.689 23.8203C445.369 23.8203 443.589 24.5736 442.349 26.0803C441.122 27.587 440.509 29.7336 440.509 32.5203C440.509 35.2403 441.122 37.3536 442.349 38.8603C443.589 40.3536 445.342 41.1003 447.609 41.1003C449.156 41.1003 450.502 40.747 451.649 40.0403C452.809 39.3203 453.722 38.287 454.389 36.9403L457.129 38.0003C456.276 39.8803 455.016 41.3403 453.349 42.3803C451.696 43.407 449.822 43.9203 447.729 43.9203ZM439.469 33.3403V30.8803H455.969V33.3403H439.469ZM467.777 43.9203C466.15 43.9203 464.784 43.627 463.677 43.0403C462.584 42.4536 461.764 41.6736 461.217 40.7003C460.67 39.727 460.397 38.667 460.397 37.5203C460.397 36.347 460.63 35.347 461.097 34.5203C461.577 33.6803 462.224 32.9936 463.037 32.4603C463.864 31.927 464.817 31.5203 465.897 31.2403C466.99 30.9736 468.197 30.7403 469.517 30.5403C470.85 30.327 472.15 30.147 473.417 30.0003C474.697 29.8403 475.817 29.687 476.777 29.5403L475.737 30.1803C475.777 28.047 475.364 26.467 474.497 25.4403C473.63 24.4136 472.124 23.9003 469.977 23.9003C468.497 23.9003 467.244 24.2336 466.217 24.9003C465.204 25.567 464.49 26.6203 464.077 28.0603L461.217 27.2203C461.71 25.287 462.704 23.787 464.197 22.7203C465.69 21.6536 467.63 21.1203 470.017 21.1203C471.99 21.1203 473.664 21.4936 475.037 22.2403C476.424 22.9736 477.404 24.0403 477.977 25.4403C478.244 26.067 478.417 26.767 478.497 27.5403C478.577 28.3136 478.617 29.1003 478.617 29.9003V43.3203H475.997V37.9003L476.757 38.2203C476.024 40.0736 474.884 41.487 473.337 42.4603C471.79 43.4336 469.937 43.9203 467.777 43.9203ZM468.117 41.3803C469.49 41.3803 470.69 41.1336 471.717 40.6403C472.744 40.147 473.57 39.4736 474.197 38.6203C474.824 37.7536 475.23 36.7803 475.417 35.7003C475.577 35.007 475.664 34.247 475.677 33.4203C475.69 32.5803 475.697 31.9536 475.697 31.5403L476.817 32.1203C475.817 32.2536 474.73 32.387 473.557 32.5203C472.397 32.6536 471.25 32.807 470.117 32.9803C468.997 33.1536 467.984 33.3603 467.077 33.6003C466.464 33.7736 465.87 34.0203 465.297 34.3403C464.724 34.647 464.25 35.0603 463.877 35.5803C463.517 36.1003 463.337 36.747 463.337 37.5203C463.337 38.147 463.49 38.7536 463.797 39.3403C464.117 39.927 464.624 40.4136 465.317 40.8003C466.024 41.187 466.957 41.3803 468.117 41.3803ZM495.583 43.3203C494.37 43.5736 493.17 43.6736 491.983 43.6203C490.81 43.567 489.757 43.3136 488.823 42.8603C487.903 42.407 487.203 41.7003 486.723 40.7403C486.337 39.9403 486.123 39.1336 486.083 38.3203C486.057 37.4936 486.043 36.5536 486.043 35.5003V15.7203H488.963V35.3803C488.963 36.287 488.97 37.047 488.983 37.6603C489.01 38.2603 489.15 38.7936 489.403 39.2603C489.883 40.1536 490.643 40.687 491.683 40.8603C492.737 41.0336 494.037 40.9936 495.583 40.7403V43.3203ZM481.423 24.2403V21.7203H495.583V24.2403H481.423ZM516.987 43.9203C514.88 43.9203 513.054 43.4536 511.507 42.5203C509.974 41.587 508.78 40.2736 507.927 38.5803C507.074 36.887 506.647 34.9003 506.647 32.6203C506.647 30.2603 507.067 28.2203 507.907 26.5003C508.747 24.7803 509.927 23.4536 511.447 22.5203C512.98 21.587 514.787 21.1203 516.867 21.1203C519 21.1203 520.82 21.6136 522.327 22.6003C523.834 23.5736 524.974 24.9736 525.747 26.8003C526.52 28.627 526.874 30.807 526.807 33.3403H523.807V32.3003C523.754 29.5003 523.147 27.387 521.987 25.9603C520.84 24.5336 519.16 23.8203 516.947 23.8203C514.627 23.8203 512.847 24.5736 511.607 26.0803C510.38 27.587 509.767 29.7336 509.767 32.5203C509.767 35.2403 510.38 37.3536 511.607 38.8603C512.847 40.3536 514.6 41.1003 516.867 41.1003C518.414 41.1003 519.76 40.747 520.907 40.0403C522.067 39.3203 522.98 38.287 523.647 36.9403L526.387 38.0003C525.534 39.8803 524.274 41.3403 522.607 42.3803C520.954 43.407 519.08 43.9203 516.987 43.9203ZM508.727 33.3403V30.8803H525.227V33.3403H508.727ZM528.064 43.3203L536.504 32.4003L528.244 21.7203H531.764L538.224 30.1403L544.624 21.7203H548.144L539.884 32.4003L548.344 43.3203H544.804L538.224 34.6603L531.604 43.3203H528.064ZM561.258 43.9203C559.271 43.9203 557.591 43.4203 556.218 42.4203C554.844 41.407 553.804 40.0403 553.098 38.3203C552.391 36.587 552.038 34.647 552.038 32.5003C552.038 30.3136 552.391 28.367 553.098 26.6603C553.818 24.9403 554.871 23.587 556.258 22.6003C557.644 21.6136 559.351 21.1203 561.378 21.1203C563.351 21.1203 565.044 21.6203 566.458 22.6203C567.871 23.6203 568.951 24.9803 569.698 26.7003C570.458 28.4203 570.838 30.3536 570.838 32.5003C570.838 34.6603 570.458 36.6003 569.698 38.3203C568.938 40.0403 567.844 41.407 566.418 42.4203C564.991 43.4203 563.271 43.9203 561.258 43.9203ZM551.538 52.9203V21.7203H554.178V37.9803H554.498V52.9203H551.538ZM560.958 41.1803C562.464 41.1803 563.718 40.8003 564.718 40.0403C565.718 39.2803 566.464 38.247 566.958 36.9403C567.464 35.6203 567.718 34.1403 567.718 32.5003C567.718 30.8736 567.471 29.407 566.978 28.1003C566.484 26.7936 565.731 25.7603 564.718 25.0003C563.718 24.2403 562.444 23.8603 560.898 23.8603C559.391 23.8603 558.138 24.227 557.138 24.9603C556.151 25.6936 555.411 26.7136 554.918 28.0203C554.424 29.3136 554.178 30.807 554.178 32.5003C554.178 34.167 554.424 35.6603 554.918 36.9803C555.411 38.287 556.158 39.3136 557.158 40.0603C558.158 40.807 559.424 41.1803 560.958 41.1803ZM584.37 43.9203C582.263 43.9203 580.436 43.4536 578.89 42.5203C577.356 41.587 576.163 40.2736 575.31 38.5803C574.456 36.887 574.03 34.9003 574.03 32.6203C574.03 30.2603 574.45 28.2203 575.29 26.5003C576.13 24.7803 577.31 23.4536 578.83 22.5203C580.363 21.587 582.17 21.1203 584.25 21.1203C586.383 21.1203 588.203 21.6136 589.71 22.6003C591.216 23.5736 592.356 24.9736 593.13 26.8003C593.903 28.627 594.256 30.807 594.19 33.3403H591.19V32.3003C591.136 29.5003 590.53 27.387 589.37 25.9603C588.223 24.5336 586.543 23.8203 584.33 23.8203C582.01 23.8203 580.23 24.5736 578.99 26.0803C577.763 27.587 577.15 29.7336 577.15 32.5203C577.15 35.2403 577.763 37.3536 578.99 38.8603C580.23 40.3536 581.983 41.1003 584.25 41.1003C585.796 41.1003 587.143 40.747 588.29 40.0403C589.45 39.3203 590.363 38.287 591.03 36.9403L593.77 38.0003C592.916 39.8803 591.656 41.3403 589.99 42.3803C588.336 43.407 586.463 43.9203 584.37 43.9203ZM576.11 33.3403V30.8803H592.61V33.3403H576.11ZM598.628 43.3203V21.7203H601.268V26.9203L600.748 26.2403C600.988 25.6003 601.301 25.0136 601.688 24.4803C602.075 23.9336 602.495 23.487 602.948 23.1403C603.508 22.647 604.161 22.2736 604.908 22.0203C605.655 21.7536 606.408 21.6003 607.168 21.5603C607.928 21.507 608.621 21.5603 609.248 21.7203V24.4803C608.461 24.2803 607.601 24.2336 606.668 24.3403C605.735 24.447 604.875 24.8203 604.088 25.4603C603.368 26.0203 602.828 26.6936 602.468 27.4803C602.108 28.2536 601.868 29.0803 601.748 29.9603C601.628 30.827 601.568 31.687 601.568 32.5403V43.3203H598.628ZM613.442 17.6203V14.3203H616.382V17.6203H613.442ZM613.442 43.3203V21.7203H616.382V43.3203H613.442ZM631.518 43.9203C629.411 43.9203 627.585 43.4536 626.038 42.5203C624.505 41.587 623.311 40.2736 622.458 38.5803C621.605 36.887 621.178 34.9003 621.178 32.6203C621.178 30.2603 621.598 28.2203 622.438 26.5003C623.278 24.7803 624.458 23.4536 625.978 22.5203C627.511 21.587 629.318 21.1203 631.398 21.1203C633.531 21.1203 635.351 21.6136 636.858 22.6003C638.365 23.5736 639.505 24.9736 640.278 26.8003C641.051 28.627 641.405 30.807 641.338 33.3403H638.338V32.3003C638.285 29.5003 637.678 27.387 636.518 25.9603C635.371 24.5336 633.691 23.8203 631.478 23.8203C629.158 23.8203 627.378 24.5736 626.138 26.0803C624.911 27.587 624.298 29.7336 624.298 32.5203C624.298 35.2403 624.911 37.3536 626.138 38.8603C627.378 40.3536 629.131 41.1003 631.398 41.1003C632.945 41.1003 634.291 40.747 635.438 40.0403C636.598 39.3203 637.511 38.287 638.178 36.9403L640.918 38.0003C640.065 39.8803 638.805 41.3403 637.138 42.3803C635.485 43.407 633.611 43.9203 631.518 43.9203ZM623.258 33.3403V30.8803H639.758V33.3403H623.258ZM660.791 43.3203V32.3003C660.791 31.1003 660.677 30.0003 660.451 29.0003C660.224 27.987 659.857 27.107 659.351 26.3603C658.857 25.6003 658.211 25.0136 657.411 24.6003C656.624 24.187 655.664 23.9803 654.531 23.9803C653.491 23.9803 652.571 24.1603 651.771 24.5203C650.984 24.8803 650.317 25.4003 649.771 26.0803C649.237 26.747 648.831 27.5603 648.551 28.5203C648.271 29.4803 648.131 30.5736 648.131 31.8003L646.051 31.3403C646.051 29.127 646.437 27.267 647.211 25.7603C647.984 24.2536 649.051 23.1136 650.411 22.3403C651.771 21.567 653.331 21.1803 655.091 21.1803C656.384 21.1803 657.511 21.3803 658.471 21.7803C659.444 22.1803 660.264 22.7203 660.931 23.4003C661.611 24.0803 662.157 24.8603 662.571 25.7403C662.984 26.607 663.284 27.5336 663.471 28.5203C663.657 29.4936 663.751 30.467 663.751 31.4403V43.3203H660.791ZM645.171 43.3203V21.7203H647.831V27.0403H648.131V43.3203H645.171ZM677.783 43.9203C675.61 43.9203 673.77 43.4336 672.263 42.4603C670.757 41.487 669.61 40.147 668.823 38.4403C668.05 36.7203 667.65 34.747 667.623 32.5203C667.65 30.2536 668.063 28.267 668.863 26.5603C669.663 24.8403 670.817 23.507 672.323 22.5603C673.83 21.6003 675.657 21.1203 677.803 21.1203C679.99 21.1203 681.89 21.6536 683.503 22.7203C685.13 23.787 686.243 25.247 686.843 27.1003L683.963 28.0203C683.457 26.727 682.65 25.727 681.543 25.0203C680.45 24.3003 679.197 23.9403 677.783 23.9403C676.197 23.9403 674.883 24.307 673.843 25.0403C672.803 25.7603 672.03 26.767 671.523 28.0603C671.017 29.3536 670.757 30.8403 670.743 32.5203C670.77 35.107 671.37 37.187 672.543 38.7603C673.717 40.3203 675.463 41.1003 677.783 41.1003C679.25 41.1003 680.497 40.767 681.523 40.1003C682.563 39.4203 683.35 38.4336 683.883 37.1403L686.843 38.0203C686.043 39.9403 684.87 41.407 683.323 42.4203C681.777 43.4203 679.93 43.9203 677.783 43.9203ZM699.526 43.9203C697.419 43.9203 695.593 43.4536 694.046 42.5203C692.513 41.587 691.319 40.2736 690.466 38.5803C689.613 36.887 689.186 34.9003 689.186 32.6203C689.186 30.2603 689.606 28.2203 690.446 26.5003C691.286 24.7803 692.466 23.4536 693.986 22.5203C695.519 21.587 697.326 21.1203 699.406 21.1203C701.539 21.1203 703.359 21.6136 704.866 22.6003C706.373 23.5736 707.513 24.9736 708.286 26.8003C709.059 28.627 709.413 30.807 709.346 33.3403H706.346V32.3003C706.293 29.5003 705.686 27.387 704.526 25.9603C703.379 24.5336 701.699 23.8203 699.486 23.8203C697.166 23.8203 695.386 24.5736 694.146 26.0803C692.919 27.587 692.306 29.7336 692.306 32.5203C692.306 35.2403 692.919 37.3536 694.146 38.8603C695.386 40.3536 697.139 41.1003 699.406 41.1003C700.953 41.1003 702.299 40.747 703.446 40.0403C704.606 39.3203 705.519 38.287 706.186 36.9403L708.926 38.0003C708.073 39.8803 706.813 41.3403 705.146 42.3803C703.493 43.407 701.619 43.9203 699.526 43.9203ZM691.266 33.3403V30.8803H707.766V33.3403H691.266ZM721.844 43.9003C719.311 43.9003 717.224 43.3536 715.584 42.2603C713.958 41.167 712.958 39.647 712.584 37.7003L715.584 37.2003C715.904 38.427 716.631 39.407 717.764 40.1403C718.911 40.8603 720.324 41.2203 722.004 41.2203C723.644 41.2203 724.938 40.8803 725.884 40.2003C726.831 39.507 727.304 38.567 727.304 37.3803C727.304 36.7136 727.151 36.1736 726.844 35.7603C726.551 35.3336 725.944 34.9403 725.024 34.5803C724.104 34.2203 722.731 33.7936 720.904 33.3003C718.944 32.767 717.411 32.2336 716.304 31.7003C715.198 31.167 714.411 30.5536 713.944 29.8603C713.478 29.1536 713.244 28.2936 713.244 27.2803C713.244 26.0536 713.591 24.9803 714.284 24.0603C714.978 23.127 715.938 22.407 717.164 21.9003C718.391 21.3803 719.818 21.1203 721.444 21.1203C723.071 21.1203 724.524 21.387 725.804 21.9203C727.098 22.4403 728.138 23.1736 728.924 24.1203C729.711 25.067 730.178 26.167 730.324 27.4203L727.324 27.9603C727.124 26.6936 726.491 25.6936 725.424 24.9603C724.371 24.2136 723.031 23.827 721.404 23.8003C719.871 23.7603 718.624 24.0536 717.664 24.6803C716.704 25.2936 716.224 26.1136 716.224 27.1403C716.224 27.7136 716.398 28.207 716.744 28.6203C717.091 29.0203 717.718 29.4003 718.624 29.7603C719.544 30.1203 720.851 30.5136 722.544 30.9403C724.531 31.447 726.091 31.9803 727.224 32.5403C728.358 33.1003 729.164 33.7603 729.644 34.5203C730.124 35.2803 730.364 36.2203 730.364 37.3403C730.364 39.3803 729.604 40.987 728.084 42.1603C726.578 43.3203 724.498 43.9003 721.844 43.9003ZM735.36 43.3203V39.9003H738.78V43.3203H735.36Z" fill="#CECECE" fill-opacity="0.4" shape-rendering="crispEdges"/>
</g>
<defs>
<filter id="filter0_d_934_70" x="14.2" y="13.9395" width="728.58" height="47.5801" filterUnits="userSpaceOnUse" color-interpolation-filters="sRGB">
<feFlood flood-opacity="0" result="BackgroundImageFix"/>
<feColorMatrix in="SourceAlpha" type="matrix" values="0 0 0 0 0 0 0 0 0 0 0 0 0 0 0 0 0 0 127 0" result="hardAlpha"/>
<feOffset dy="4"/>
<feGaussianBlur stdDeviation="2"/>
<feComposite in2="hardAlpha" operator="out"/>
<feColorMatrix type="matrix" values="0 0 0 0 0 0 0 0 0 0 0 0 0 0 0 0 0 0 0.1 0"/>
<feBlend mode="normal" in2="BackgroundImageFix" result="effect1_dropShadow_934_70"/>
<feBlend mode="normal" in="SourceGraphic" in2="effect1_dropShadow_934_70" result="shape"/>
</filter>
</defs>
</svg>
