<svg width="229" height="96" viewBox="0 0 229 96" fill="none" xmlns="http://www.w3.org/2000/svg">
<g clip-path="url(#clip0_929_45)">
<path d="M136.847 33.2209C131.843 33.2209 128.115 35.6752 128.115 41.5771C128.115 46.0234 130.569 49.1131 136.577 49.1131C141.67 49.1131 145.131 46.1215 145.131 41.3935C145.131 36.0373 142.034 33.2209 136.847 33.2209ZM126.84 74.9079C125.655 76.3583 124.475 77.9027 124.475 79.7204C124.475 83.3517 129.111 84.4411 135.482 84.4411C140.764 84.4411 147.953 84.0738 147.953 79.1789C147.953 76.2644 144.494 76.0849 140.123 75.8116L126.84 74.9079ZM153.777 33.4943C155.412 35.5855 157.144 38.4916 157.144 42.6696C157.144 52.7455 149.227 58.6516 137.762 58.6516C134.845 58.6516 132.207 58.2884 130.569 57.8324L127.568 62.646L136.483 63.1886C152.23 64.1903 161.51 64.6474 161.51 76.7204C161.51 87.1636 152.32 93.0665 136.483 93.0665C120.014 93.0665 113.732 88.8884 113.732 81.7135C113.732 77.6262 115.554 75.4526 118.74 72.4495C115.734 71.1858 114.737 68.9152 114.737 66.4609C114.737 64.4637 115.734 62.646 117.376 60.918C119.013 59.1942 120.831 57.4693 123.017 55.4721C118.56 53.2912 115.19 48.5674 115.19 41.8463C115.19 31.4032 122.105 24.2324 136.03 24.2324C139.943 24.2324 142.308 24.5914 144.404 25.1423H162.151V32.8578L153.778 33.4943" fill="#362701"/>
<mask id="mask0_929_45" style="mask-type:luminance" maskUnits="userSpaceOnUse" x="166" y="0" width="27" height="72">
<path d="M166.26 0.824219H192.402V71.9999H166.26V0.824219Z" fill="white"/>
</mask>
<g mask="url(#mask0_929_45)">
<path d="M178.159 16.9878C172.971 16.9878 169.969 13.993 169.969 8.81113C169.969 3.63861 172.971 0.822266 178.159 0.822266C183.439 0.822266 186.443 3.63966 186.443 8.81113C186.443 13.992 183.44 16.9878 178.159 16.9878ZM166.419 71.567V64.392L171.06 63.7597C172.335 63.577 172.518 63.3037 172.518 61.9377V35.2403C172.518 34.2459 172.245 33.6063 171.334 33.337L166.419 31.609L167.42 24.2557H186.259V61.9398C186.259 63.3997 186.348 63.5781 187.717 63.7617L192.357 64.3941V71.568L166.419 71.567Z" fill="#362701"/>
</g>
<mask id="mask1_929_45" style="mask-type:luminance" maskUnits="userSpaceOnUse" x="191" y="9" width="38" height="63">
<path d="M191.356 9.39062H228.342V71.9993H191.356V9.39062Z" fill="white"/>
</mask>
<g mask="url(#mask1_929_45)">
<path d="M228.342 68.0454C224.429 69.9498 218.698 71.6778 213.507 71.6778C202.679 71.6778 198.586 67.3213 198.586 57.0534V33.2653C198.586 32.7185 198.586 32.3564 197.854 32.3564H191.483V24.2736C199.497 23.3647 202.679 19.3661 203.679 9.46875H212.327V22.3661C212.327 23.0016 212.327 23.274 213.054 23.274H225.884V32.3564H212.327V54.0576C212.327 59.4169 213.601 61.5039 218.515 61.5039C221.063 61.5039 223.702 60.8684 225.884 60.0534L228.342 68.0454Z" fill="#362701"/>
</g>
<mask id="mask2_929_45" style="mask-type:luminance" maskUnits="userSpaceOnUse" x="0" y="0" width="97" height="96">
<path d="M-3.8147e-06 0.824219H96.2009V95.9999H-3.8147e-06V0.824219Z" fill="white"/>
</mask>
<g mask="url(#mask2_929_45)">
<path d="M93.5052 44.2135L51.8952 2.69454C51.3254 2.12574 50.6488 1.67453 49.9043 1.36668C49.1597 1.05884 48.3616 0.900391 47.5557 0.900391C46.7497 0.900391 45.9516 1.05884 45.2071 1.36668C44.4625 1.67453 43.786 2.12574 43.2162 2.69454L34.5759 11.3158L45.5344 22.2556C46.8227 21.8173 48.2083 21.7481 49.534 22.0557C50.8598 22.3633 52.0726 23.0356 53.0349 23.9961C54.0019 24.9628 54.6771 26.1813 54.9833 27.5125C55.2895 28.8438 55.2144 30.2341 54.7665 31.5248L65.3298 42.0692C66.6229 41.6205 68.0166 41.5447 69.3508 41.8506C70.6851 42.1564 71.9059 42.8314 72.8732 43.7982C73.5521 44.4743 74.0906 45.2774 74.4581 46.1615C74.8256 47.0455 75.0147 47.9933 75.0147 48.9504C75.0147 49.9075 74.8256 50.8552 74.4581 51.7393C74.0906 52.6233 73.5521 53.4264 72.8732 54.1025C72.1953 54.7801 71.3902 55.3176 70.5039 55.6844C69.6177 56.0511 68.6676 56.2399 67.7082 56.2399C66.7487 56.2399 65.7987 56.0511 64.9124 55.6844C64.0262 55.3176 63.221 54.7801 62.5431 54.1025C61.5248 53.0852 60.8307 51.7901 60.5481 50.3802C60.2655 48.9702 60.407 47.5083 60.9548 46.1784L51.1025 36.3467V62.2177C51.8177 62.5684 52.4705 63.0337 53.0349 63.5951C54.4045 64.9624 55.1738 66.8166 55.1738 68.7499C55.1738 70.6831 54.4045 72.5373 53.0349 73.9046C50.1803 76.7491 45.5553 76.7491 42.709 73.9046C42.0299 73.2281 41.4911 72.4246 41.1235 71.5401C40.7559 70.6556 40.5667 69.7074 40.5667 68.7499C40.5667 67.7923 40.7559 66.8441 41.1235 65.9596C41.4911 65.0751 42.0299 64.2716 42.709 63.5951C43.3906 62.9108 44.2032 62.3703 45.0984 62.0058V35.8938C44.2032 35.5294 43.3906 34.9889 42.709 34.3046C41.6838 33.2822 40.9864 31.9785 40.7056 30.5595C40.4249 29.1405 40.5733 27.6702 41.1322 26.3356L30.3284 15.5502L1.79749 44.0215C1.22734 44.5901 0.775053 45.2653 0.466472 46.0084C0.15789 46.7515 -0.000938416 47.5481 -0.000938416 48.3525C-0.000938416 49.1569 0.15789 49.9534 0.466472 50.6965C0.775053 51.4396 1.22734 52.1148 1.79749 52.6834L43.4075 94.2065C43.9773 94.7753 44.6538 95.2266 45.3984 95.5344C46.143 95.8422 46.9411 96.0007 47.747 96.0007C48.553 96.0007 49.351 95.8422 50.0956 95.5344C50.8402 95.2266 51.5167 94.7753 52.0865 94.2065L93.5052 52.8796C94.6567 51.7303 95.3035 50.1717 95.3035 48.5465C95.3035 46.9214 94.6567 45.3628 93.5052 44.2135Z" fill="#F03C2E"/>
</g>
</g>
<defs>
<clipPath id="clip0_929_45">
<rect width="229" height="96" fill="white"/>
</clipPath>
</defs>
</svg>
