<svg width="96" height="96" viewBox="0 0 96 96" fill="none" xmlns="http://www.w3.org/2000/svg">
<path d="M34.175 13.3809C32.2198 13.3809 30.4064 13.8186 28.8 14.7434C23.7796 17.6419 21.8687 24.7054 22.8812 33.4996C14.7606 37.0199 9.59998 42.2033 9.59998 47.9996C9.59998 53.7959 14.7606 58.9793 22.8812 62.4996C21.8692 71.2935 23.7796 78.3573 28.8 81.2559C30.4032 82.1807 32.2166 82.6184 34.175 82.6184C38.3434 82.6184 43.1611 80.5263 48 76.9371C52.8393 80.5263 57.6628 82.6184 61.8312 82.6184C63.7864 82.6184 65.5998 82.1807 67.2062 81.2559C72.2266 78.3573 74.1375 71.2938 73.125 62.4996C81.2425 58.9794 86.4 53.7946 86.4 47.9996C86.4 42.2033 81.2393 37.0199 73.1187 33.4996C74.1308 24.7057 72.2204 17.6419 67.2 14.7434C65.5968 13.8154 63.7834 13.3809 61.825 13.3809C57.6566 13.3809 52.8389 15.4729 48 19.0621C43.1608 15.4729 38.3419 13.3809 34.175 13.3809ZM34.175 18.9809C36.6762 18.9809 39.9838 20.3108 43.575 22.7746C41.4636 24.7672 39.3957 27.033 37.4062 29.5559C34.1794 30.0185 31.1371 30.693 28.3187 31.5371C28.3036 31.3417 28.2677 31.1366 28.2562 30.9434C27.9138 25.2474 29.1648 21.0014 31.6 19.5934C32.32 19.1774 33.1606 18.9809 34.175 18.9809ZM61.825 18.9809C62.8362 18.9809 63.68 19.1774 64.4 19.5934C66.8352 20.9982 68.0861 25.2474 67.7437 30.9434C67.7321 31.1366 67.6964 31.3417 67.6812 31.5371C64.8611 30.6925 61.8165 30.0186 58.5875 29.5559C56.5981 27.0333 54.5363 24.767 52.425 22.7746C56.0159 20.3112 59.325 18.9809 61.825 18.9809ZM48 26.3309C48.8674 27.1204 49.7288 27.9549 50.6 28.8684C49.7367 28.8394 48.878 28.7996 48 28.7996C47.1241 28.7996 46.2675 28.8395 45.4062 28.8684C46.2766 27.9559 47.1333 27.1197 48 26.3309ZM48 34.3996C50.6518 34.3996 53.1652 34.5478 55.55 34.8059C57.0043 36.7826 58.4377 38.8726 59.7812 41.1996C61.069 43.4301 62.2078 45.7132 63.2125 47.9996C62.2076 50.2874 61.0698 52.574 59.7812 54.8059C58.4418 57.1262 57.0121 59.2026 55.5625 61.1746C53.0935 61.4448 50.5607 61.5996 48 61.5996C45.3482 61.5996 42.8348 61.4514 40.45 61.1934C38.9956 59.2166 37.5623 57.1329 36.2187 54.8059C34.9302 52.574 33.7926 50.2874 32.7875 47.9996C33.7919 45.7132 34.9309 43.4301 36.2187 41.1996C37.5586 38.8793 38.9875 36.7966 40.4375 34.8246C42.9065 34.5545 45.4393 34.3996 48 34.3996ZM63.1875 36.1309C64.4571 36.4374 65.6776 36.7683 66.825 37.1371C66.565 38.3117 66.2471 39.5088 65.8875 40.7184C65.4757 39.9457 65.0764 39.1705 64.6312 38.3996C64.1732 37.6066 63.6648 36.8942 63.1875 36.1309ZM32.8062 36.1371C32.3306 36.8981 31.8253 37.6092 31.3687 38.3996C30.9237 39.1706 30.5241 39.9456 30.1125 40.7184C29.752 39.5063 29.4289 38.3078 29.1687 37.1309C30.3372 36.7617 31.5546 36.4348 32.8062 36.1371ZM23.9 39.1871C24.5742 42.0339 25.5095 44.9849 26.7125 47.9934C25.5121 50.9946 24.5807 53.9403 23.9062 56.7809C18.3335 54.0899 15.2 50.74 15.2 47.9996C15.2 45.1868 18.246 41.9813 23.35 39.4309C23.5242 39.3437 23.722 39.2722 23.9 39.1871ZM72.0937 39.2184C77.6664 41.9094 80.8 45.2592 80.8 47.9996C80.8 50.8124 77.754 54.018 72.65 56.5684C72.4758 56.6555 72.278 56.727 72.1 56.8121C71.4254 53.9637 70.4977 51.0098 69.2937 47.9996C70.4927 45.0009 71.4198 42.0566 72.0937 39.2184ZM48 41.5996C44.464 41.5996 41.6 44.4636 41.6 47.9996C41.6 51.5356 44.464 54.3996 48 54.3996C51.536 54.3996 54.4 51.5356 54.4 47.9996C54.4 44.4636 51.536 41.5996 48 41.5996ZM30.1125 55.2809C30.5244 56.0538 30.9297 56.8284 31.375 57.5996C31.8325 58.392 32.3357 59.1056 32.8125 59.8684C31.5429 59.5618 30.3224 59.2309 29.175 58.8621C29.4351 57.6868 29.7525 56.4912 30.1125 55.2809ZM65.8875 55.2871C66.2475 56.498 66.5712 57.6926 66.8312 58.8684C65.6628 59.2375 64.4453 59.5645 63.1937 59.8621C63.6694 59.1011 64.1747 58.39 64.6312 57.5996C65.0753 56.8302 65.4766 56.0583 65.8875 55.2871ZM28.3187 64.4621C31.1389 65.3067 34.1834 65.9806 37.4125 66.4434C39.4025 68.9671 41.4626 71.2378 43.575 73.2309C39.9841 75.6939 36.676 77.0246 34.175 77.0246C33.1638 77.0246 32.32 76.8219 31.6 76.4059C29.1648 75.0011 27.9138 70.7581 28.2562 65.0621C28.268 64.8669 28.3033 64.6596 28.3187 64.4621ZM67.6812 64.4621C67.6966 64.6596 67.7321 64.8669 67.7437 65.0621C68.0861 70.7581 66.8352 74.9979 64.4 76.4059C63.68 76.8219 62.8394 77.0246 61.825 77.0246C59.3239 77.0246 56.0158 75.6944 52.425 73.2309C54.5375 71.2376 56.6033 68.9675 58.5937 66.4434C61.8205 65.9807 64.8629 65.3062 67.6812 64.4621ZM45.4 67.1309C46.2633 67.1599 47.122 67.1996 48 67.1996C48.878 67.1996 49.7367 67.1599 50.6 67.1309C49.7288 68.0443 48.8674 68.8789 48 69.6684C47.1325 68.8788 46.2711 68.0443 45.4 67.1309Z" fill="black"/>
</svg>
