<svg width="96" height="96" viewBox="0 0 96 96" fill="none" xmlns="http://www.w3.org/2000/svg">
<path d="M79.734 51.9111C76.658 51.9271 73.994 52.6651 71.762 53.7671C70.946 52.1371 70.118 50.7031 69.98 49.6371C69.818 48.3931 69.63 47.6491 69.826 46.1671C70.022 44.6851 70.88 42.5851 70.868 42.4271C70.856 42.2691 70.676 41.5151 68.902 41.5011C67.128 41.4891 65.61 41.8431 65.432 42.3111C65.254 42.7791 64.912 43.8331 64.7 44.9331C64.39 46.5411 61.158 52.2791 59.324 55.2791C58.724 54.1071 58.214 53.0751 58.108 52.2591C57.946 51.0151 57.758 50.2711 57.954 48.7891C58.15 47.3071 59.008 45.2071 58.996 45.0491C58.984 44.8911 58.804 44.1371 57.03 44.1231C55.256 44.1111 53.738 44.4651 53.56 44.9331C53.382 45.4011 53.19 46.4951 52.828 47.5551C52.464 48.6131 48.17 58.1831 47.044 60.6651C46.47 61.9291 45.972 62.9451 45.62 63.6371L45.618 63.6331C45.618 63.6331 45.596 63.6791 45.56 63.7571C45.258 64.3471 45.08 64.6731 45.08 64.6731C45.08 64.6731 45.082 64.6771 45.086 64.6851C44.846 65.1191 44.59 65.5211 44.464 65.5211C44.376 65.5211 44.198 64.3671 44.502 62.7831C45.142 59.4631 46.676 54.2871 46.662 54.1071C46.654 54.0151 46.948 53.1131 45.66 52.6411C44.408 52.1831 43.962 52.9471 43.848 52.9491C43.738 52.9511 43.656 53.2191 43.656 53.2191C43.656 53.2191 45.05 47.3971 40.996 47.3971C38.46 47.3971 34.948 50.1711 33.218 52.6851C32.126 53.2811 29.788 54.5571 27.31 55.9191C26.358 56.4431 25.386 56.9771 24.464 57.4851C24.402 57.4151 24.338 57.3471 24.274 57.2771C19.356 52.0311 10.268 48.3211 10.652 41.2671C10.792 38.7031 11.684 31.9511 28.118 23.7631C41.58 17.0551 52.358 18.9011 54.22 22.9911C56.88 28.8371 48.46 39.6991 34.48 41.2671C29.154 41.8651 26.348 39.7991 25.65 39.0311C24.916 38.2211 24.806 38.1851 24.532 38.3371C24.086 38.5851 24.368 39.2991 24.532 39.7251C24.95 40.8111 26.662 42.7371 29.582 43.6971C32.152 44.5411 38.406 45.0031 45.968 42.0771C54.44 38.8011 61.054 29.6851 59.11 22.0671C57.134 14.3191 44.286 11.7711 32.126 16.0911C24.88 18.6631 17.046 22.6991 11.412 27.9671C4.714 34.2311 3.646 39.6851 4.086 41.9631C5.65 50.0591 16.808 55.3311 21.276 59.2371C21.056 59.3591 20.848 59.4731 20.66 59.5771C18.42 60.6851 9.914 65.1371 7.786 69.8391C5.372 75.1731 8.17 79.0011 10.022 79.5171C15.76 81.1131 21.648 78.2411 24.814 73.5211C27.978 68.8031 27.592 62.6571 26.14 59.8531C26.122 59.8191 26.102 59.7851 26.084 59.7491C26.662 59.4071 27.252 59.0591 27.836 58.7151C28.976 58.0451 30.096 57.4211 31.066 56.8931C30.522 58.3811 30.124 60.1671 29.918 62.7451C29.674 65.7731 30.916 69.6871 32.54 71.2271C33.256 71.9051 34.116 71.9211 34.66 71.9211C36.55 71.9211 37.412 70.3491 38.362 68.4891C39.526 66.2091 40.56 63.5531 40.56 63.5531C40.56 63.5531 39.264 70.7251 42.796 70.7251C44.084 70.7251 45.378 69.0551 45.956 68.2051C45.958 68.2151 45.958 68.2191 45.958 68.2191C45.958 68.2191 45.992 68.1631 46.058 68.0531C46.192 67.8491 46.268 67.7191 46.268 67.7191C46.268 67.7191 46.27 67.7051 46.274 67.6811C46.792 66.7831 47.94 64.7351 49.66 61.3571C51.884 56.9931 54.016 51.5251 54.016 51.5251C54.016 51.5251 54.214 52.8611 54.864 55.0731C55.246 56.3731 56.058 57.8111 56.7 59.1911C56.184 59.9071 55.868 60.3171 55.868 60.3171C55.868 60.3171 55.87 60.3251 55.876 60.3391C55.464 60.8871 55.002 61.4771 54.518 62.0531C52.762 64.1431 50.672 66.5311 50.392 67.2191C50.062 68.0311 50.14 68.6271 50.778 69.1091C51.244 69.4591 52.072 69.5151 52.938 69.4571C54.516 69.3511 55.624 68.9591 56.172 68.7211C57.026 68.4191 58.02 67.9451 58.952 67.2591C60.674 65.9931 61.712 64.1831 61.612 61.7831C61.556 60.4611 61.136 59.1511 60.602 57.9151C60.758 57.6911 60.914 57.4631 61.072 57.2351C63.786 53.2671 65.892 48.9071 65.892 48.9071C65.892 48.9071 66.09 50.2431 66.74 52.4551C67.068 53.5731 67.718 54.7951 68.302 55.9911C65.75 58.0651 64.168 60.4751 63.618 62.0551C62.602 64.9791 63.398 66.3031 64.89 66.6051C65.566 66.7411 66.522 66.4311 67.24 66.1271C68.134 65.8311 69.208 65.3371 70.212 64.5991C71.934 63.3331 73.59 61.5611 73.49 59.1631C73.444 58.0711 73.148 56.9871 72.746 55.9471C74.91 55.0451 77.71 54.5451 81.278 54.9611C88.932 55.8551 90.432 60.6331 90.146 62.6331C89.858 64.6331 88.254 65.7331 87.716 66.0651C87.18 66.3971 87.016 66.5131 87.06 66.7591C87.126 67.1171 87.374 67.1051 87.832 67.0271C88.462 66.9211 91.85 65.4011 91.996 61.7091C92.178 57.0171 87.688 51.8691 79.734 51.9111ZM20.74 71.7991C18.204 74.5651 14.664 75.6091 13.144 74.7291C11.504 73.7791 12.154 69.7071 15.264 66.7711C17.16 64.9831 19.608 63.3351 21.232 62.3211C21.602 62.0991 22.144 61.7731 22.804 61.3771C22.914 61.3151 22.976 61.2811 22.976 61.2811L22.974 61.2771C23.102 61.2011 23.232 61.1231 23.366 61.0411C24.5 65.2191 23.402 68.8971 20.74 71.7991ZM39.21 59.2451C38.328 61.3971 36.48 66.9051 35.354 66.6091C34.388 66.3551 33.8 62.1691 35.162 58.0491C35.846 55.9751 37.31 53.4971 38.17 52.5351C39.554 50.9871 41.078 50.4811 41.448 51.1091C41.918 51.9091 39.764 57.8951 39.21 59.2451ZM54.468 66.5251C54.094 66.7211 53.75 66.8431 53.592 66.7491C53.474 66.6791 53.746 66.4211 53.746 66.4211C53.746 66.4211 55.654 64.3671 56.406 63.4331C56.844 62.8891 57.35 62.2431 57.902 61.5231C57.906 61.5951 57.908 61.6671 57.908 61.7371C57.904 64.1971 55.528 65.8571 54.468 66.5251ZM66.222 63.8451C65.942 63.6471 65.99 63.0051 66.908 61.0031C67.268 60.2171 68.092 58.8951 69.52 57.6311C69.686 58.1511 69.786 58.6491 69.784 59.1131C69.766 62.2091 67.558 63.3651 66.222 63.8451Z" fill="#F06292"/>
</svg>
